<svg xmlns="http://www.w3.org/2000/svg" xmlns:xlink="http://www.w3.org/1999/xlink" viewBox="0 0 251.8 36.12"><defs><style>.cls-1{font-size:23.13px;font-family:Montserrat-Bold, Montserrat;font-weight:700;}.cls-1,.cls-11,.cls-2{fill:#fff;}.cls-2{font-size:22.98px;font-family:Montserrat-Light, Montserrat;}.cls-3{letter-spacing:0em;}.cls-4{letter-spacing:0em;}.cls-5{letter-spacing:0em;}.cls-6{letter-spacing:0em;}.cls-7{fill:#75cda4;}.cls-8{fill:#fbb03b;}.cls-9{fill:url(#linear-gradient);}.cls-10{fill:#b96e16;}.cls-12{fill:url(#linear-gradient-2);}.cls-13{fill:#f7931e;}.cls-14{fill:#bc842c;}</style><linearGradient id="linear-gradient" x1="16.66" y1="17.74" x2="6.06" y2="6.61" gradientUnits="userSpaceOnUse"><stop offset="0" stop-color="#009245"/><stop offset="1" stop-color="#22b573"/></linearGradient><linearGradient id="linear-gradient-2" x1="29.17" y1="21.84" x2="15.25" y2="12.61" xlink:href="#linear-gradient"/></defs><title>web_logo</title><g id="Layer_2" data-name="Layer 2"><g id="Layer_1-2" data-name="Layer 1"><text class="cls-1" transform="translate(90.87 27.87)">buzz</text><text class="cls-2" transform="translate(152.25 27.87)">plan<tspan class="cls-3" x="50.38" y="0">n</tspan><tspan class="cls-4" x="65.87" y="0">e</tspan><tspan class="cls-5" x="79.59" y="0">r</tspan><tspan class="cls-6" x="88.56" y="0">s</tspan></text><text class="cls-2" transform="translate(43.29 27.87)">T<tspan class="cls-3" x="12.94" y="0">h</tspan><tspan x="28.43" y="0">e</tspan></text><path class="cls-7" d="M36.19,20.33l0,0h0l0,0c-1-1.68-3.7-2.11-5.63-.89l-4.43,2.77,1.15,2.08,3.52.32a3.7,3.7,0,0,1,.93.22l.28.13,1.43-.29C35.73,24.09,37.1,22,36.19,20.33Z"/><path class="cls-7" d="M29.27,28.55,26,27,27,24.49l3.7.34c1.62.15,2.75,1.42,2.31,2.63v0h0v0C32.48,28.73,30.69,29.21,29.27,28.55Z"/><path class="cls-7" d="M4.52,24.83l.28-.13a3.7,3.7,0,0,1,.93-.22l3.52-.32,1.15-2.08L6,19.31C4,18.1,1.29,18.52.34,20.21l0,0h0l0,0c-.91,1.7.46,3.75,2.8,4.23Z"/><path class="cls-7" d="M7.21,28.52,10.46,27l-.95-2.53-3.7.34C4.2,25,3.07,26.23,3.5,27.43v0h0v0C4,28.7,5.79,29.19,7.21,28.52Z"/><path class="cls-8" d="M18.94,13.51h-1.4V4A2.29,2.29,0,0,0,15.25,1.7H13.66V.3h1.59A3.69,3.69,0,0,1,18.94,4Z"/><path class="cls-8" d="M18.94,13.51h-1.4V3.87A3.57,3.57,0,0,1,21.1.3h1.71V1.7H21.1a2.17,2.17,0,0,0-2.17,2.17Z"/><path class="cls-8" d="M18.23,7.73C12.56,7.73,8,13.73,8,21.13a17.42,17.42,0,0,0,.19,2.57q.1.66.24,1.29A16,16,0,0,0,9,26.87H9a14.66,14.66,0,0,0,.91,2,12.26,12.26,0,0,0,3,3.64,9,9,0,0,0,3.91,1.87,1.62,1.62,0,0,1,1,.54,2.62,2.62,0,0,1,.53,1.18,2.63,2.63,0,0,1,.56-1.18,1.65,1.65,0,0,1,1-.58A10.27,10.27,0,0,0,26.53,29a14.48,14.48,0,0,0,.79-1.64h0a15.61,15.61,0,0,0,.65-2c.1-.4.19-.8.27-1.22a17.32,17.32,0,0,0,.27-3.06C28.51,13.73,23.91,7.73,18.23,7.73Z"/><path class="cls-9" d="M13.23,7.33A6.78,6.78,0,0,0,10,8.12V3.77A1.81,1.81,0,0,0,8.23,2h0A1.81,1.81,0,0,0,6.42,3.77v10.4h0a6.81,6.81,0,1,0,6.81-6.84Z"/><path class="cls-10" d="M25.32,30.82a11.37,11.37,0,0,1-.95,1A17.19,17.19,0,0,1,12,31.76h0a11.42,11.42,0,0,1-1-1.11,16.74,16.74,0,0,0,14.31.18Z"/><path class="cls-10" d="M26.86,28.39q-.16.32-.33.63l-.29.49a17.12,17.12,0,0,1-16.13-.19l-.25-.43q-.21-.38-.39-.77a17.71,17.71,0,0,0,8.77,2.36A17.92,17.92,0,0,0,26.86,28.39Z"/><path class="cls-10" d="M23.25,32.81l-1.12.7a13.3,13.3,0,0,1-7.82,0h0a9.53,9.53,0,0,1-1.23-.79,16.81,16.81,0,0,0,10.16.1Z"/><circle class="cls-11" cx="13.23" cy="14.14" r="3.17"/><path class="cls-12" d="M23.29,7.37a6.81,6.81,0,0,0-6.91,6.81v0h0V24.73a.56.56,0,0,0,.51.56c.74.06,1.27.3,1.27,1.11,0-.81.54-1.05,1.27-1.11a.56.56,0,0,0,.51-.56V20.18A6.81,6.81,0,1,0,23.29,7.37Z"/><circle class="cls-11" cx="23.19" cy="14.19" r="3.12"/><path class="cls-13" d="M16.46,28.34a4.95,4.95,0,0,0,4.78-1.26,3.15,3.15,0,0,1-1.19,1.37A3.52,3.52,0,0,1,16.46,28.34Z"/><circle class="cls-14" cx="13.17" cy="1" r="1"/><circle class="cls-14" cx="22.81" cy="1" r="1"/><circle class="cls-10" cx="24.51" cy="15.59" r="0.78"/><circle class="cls-10" cx="14.66" cy="15.59" r="0.78"/></g></g></svg>